  0
SECTION
  2
HEADER
  9
$ANGBASE
  50
0.0
  9
$ANGDIR
  70
1
  9
$MEASUREMENT
  70
1
  0
ENDSEC
  0
SECTION
  2
TABLES
  0
TABLE
  2
LTYPE
  70
4
  0
LTYPE
  5
40F
  2
CONTINUOUS
  70
0
  3
Solid line
  72
65
  73
0
  40
0.0
  0
LTYPE
  5
410
  2
DASHDOT
 70
0
  3
Dash Dot ____ _ ____ _
 72
65
 73
4
 40
2.0
 49
1.25
 49
-0.25
 49
0.25
 49
-0.25
  0
LTYPE
  5
411
  2
DASHED
 70
0
  3
Dashed __ __ __ __ __
 72
65
 73
2
 40
0.75
 49
0.5
 49
-0.25
  0
LTYPE
  5
43B
  2
DOTTED
 70
0
  3
Dotted .  .  .  .
 72
65
 73
2
 40
0.2
 49
0.0
 49
-0.2
  0
ENDTAB
  0
TABLE
  2
STYLE
  70
4
  0
STYLE
  2
KICAD
  70
0
  40
0
  41
1
  42
1
  50
0
  71
0
  3
isocp.shx
  0
STYLE
  2
KICADB
  70
0
  40
0
  41
1
  42
1
  50
0
  71
0
  3
isocp.shx
  0
STYLE
  2
KICADI
  70
0
  40
0
  41
1
  42
1
  50
15
  71
0
  3
isocp.shx
  0
STYLE
  2
KICADBI
  70
0
  40
0
  41
1
  42
1
  50
15
  71
0
  3
isocp.shx
  0
ENDTAB
  0
TABLE
  2
LAYER
  70
1
  0
LAYER
  2
BLACK
  70
0
  62
7
  6
CONTINUOUS
  0
ENDTAB
  0
ENDSEC
  0
SECTION
  2
ENTITIES
0
LINE
8
BLACK
6
CONTINUOUS
10
163.0113429999999823
20
-98.5761979999999909
11
163.0271819999999821
21
-98.5761979999999909
0
LINE
8
BLACK
6
CONTINUOUS
10
163.0271819999999821
20
-98.5761979999999909
11
163.0399950000000047
21
-98.5855069999999927
0
LINE
8
BLACK
6
CONTINUOUS
10
163.0399950000000047
20
-98.5855069999999927
11
163.055059
21
-98.5904019999999974
0
LINE
8
BLACK
6
CONTINUOUS
10
163.055059
20
-98.5904019999999974
11
163.0643680000000018
21
-98.6032149999999916
0
LINE
8
BLACK
6
CONTINUOUS
10
163.0643680000000018
20
-98.6032149999999916
11
163.0771819999999934
21
-98.6125249999999909
0
LINE
8
BLACK
6
CONTINUOUS
10
163.0771819999999934
20
-98.6125249999999909
11
163.0820760000000007
21
-98.6275879999999887
0
LINE
8
BLACK
6
CONTINUOUS
10
163.0820760000000007
20
-98.6275879999999887
11
163.091386
21
-98.6404019999999946
0
LINE
8
BLACK
6
CONTINUOUS
10
163.091386
20
-98.6404019999999946
11
163.091386
21
-98.6562409999999943
0
LINE
8
BLACK
6
CONTINUOUS
10
163.091386
20
-98.6562409999999943
11
163.0962799999999788
21
-98.6713039999999921
0
LINE
8
BLACK
6
CONTINUOUS
10
163.0962799999999788
20
-98.6713039999999921
11
163.0962799999999788
21
-114.0713039999999978
0
LINE
8
BLACK
6
CONTINUOUS
10
163.0962799999999788
20
-114.0713039999999978
11
163.091386
21
-114.0863659999999982
0
LINE
8
BLACK
6
CONTINUOUS
10
163.091386
20
-114.0863659999999982
11
163.091386
21
-114.1022059999999954
0
LINE
8
BLACK
6
CONTINUOUS
10
163.091386
20
-114.1022059999999954
11
163.0820760000000007
21
-114.1150189999999895
0
LINE
8
BLACK
6
CONTINUOUS
10
163.0820760000000007
20
-114.1150189999999895
11
163.0771819999999934
21
-114.1300829999999991
0
LINE
8
BLACK
6
CONTINUOUS
10
163.0771819999999934
20
-114.1300829999999991
11
163.0643680000000018
21
-114.1393920000000008
0
LINE
8
BLACK
6
CONTINUOUS
10
163.0643680000000018
20
-114.1393920000000008
11
163.055059
21
-114.1522059999999925
0
LINE
8
BLACK
6
CONTINUOUS
10
163.055059
20
-114.1522059999999925
11
163.0399950000000047
21
-114.1570999999999998
0
LINE
8
BLACK
6
CONTINUOUS
10
163.0399950000000047
20
-114.1570999999999998
11
163.0271819999999821
21
-114.1664099999999991
0
LINE
8
BLACK
6
CONTINUOUS
10
163.0271819999999821
20
-114.1664099999999991
11
163.0113429999999823
21
-114.1664099999999991
0
LINE
8
BLACK
6
CONTINUOUS
10
163.0113429999999823
20
-114.1664099999999991
11
162.9962799999999845
21
-114.1713039999999921
0
LINE
8
BLACK
6
CONTINUOUS
10
162.9962799999999845
20
-114.1713039999999921
11
147.5962800000000072
21
-114.1713039999999921
0
LINE
8
BLACK
6
CONTINUOUS
10
147.5962800000000072
20
-114.1713039999999921
11
147.581216999999981
21
-114.1664099999999991
0
LINE
8
BLACK
6
CONTINUOUS
10
147.581216999999981
20
-114.1664099999999991
11
147.5653779999999813
21
-114.1664099999999991
0
LINE
8
BLACK
6
CONTINUOUS
10
147.5653779999999813
20
-114.1664099999999991
11
147.5525639999999896
21
-114.1570999999999998
0
LINE
8
BLACK
6
CONTINUOUS
10
147.5525639999999896
20
-114.1570999999999998
11
147.5375009999999918
21
-114.1522059999999925
0
LINE
8
BLACK
6
CONTINUOUS
10
147.5375009999999918
20
-114.1522059999999925
11
147.5281909999999925
21
-114.1393920000000008
0
LINE
8
BLACK
6
CONTINUOUS
10
147.5281909999999925
20
-114.1393920000000008
11
147.5153779999999983
21
-114.1300829999999991
0
LINE
8
BLACK
6
CONTINUOUS
10
147.5153779999999983
20
-114.1300829999999991
11
147.5104829999999936
21
-114.1150189999999895
0
LINE
8
BLACK
6
CONTINUOUS
10
147.5104829999999936
20
-114.1150189999999895
11
147.5011739999999918
21
-114.1022059999999954
0
LINE
8
BLACK
6
CONTINUOUS
10
147.5011739999999918
20
-114.1022059999999954
11
147.5011739999999918
21
-114.0863659999999982
0
LINE
8
BLACK
6
CONTINUOUS
10
147.5011739999999918
20
-114.0863659999999982
11
147.4962799999999845
21
-114.0713039999999978
0
LINE
8
BLACK
6
CONTINUOUS
10
147.4962799999999845
20
-114.0713039999999978
11
147.4962799999999845
21
-98.6713039999999921
0
LINE
8
BLACK
6
CONTINUOUS
10
147.4962799999999845
20
-98.6713039999999921
11
147.5011739999999918
21
-98.6562409999999943
0
LINE
8
BLACK
6
CONTINUOUS
10
147.5011739999999918
20
-98.6562409999999943
11
147.5011739999999918
21
-98.6404019999999946
0
LINE
8
BLACK
6
CONTINUOUS
10
147.5011739999999918
20
-98.6404019999999946
11
147.5104829999999936
21
-98.6275879999999887
0
LINE
8
BLACK
6
CONTINUOUS
10
147.5104829999999936
20
-98.6275879999999887
11
147.5153779999999983
21
-98.6125249999999909
0
LINE
8
BLACK
6
CONTINUOUS
10
147.5153779999999983
20
-98.6125249999999909
11
147.5281909999999925
21
-98.6032149999999916
0
LINE
8
BLACK
6
CONTINUOUS
10
147.5281909999999925
20
-98.6032149999999916
11
147.5375009999999918
21
-98.5904019999999974
0
LINE
8
BLACK
6
CONTINUOUS
10
147.5375009999999918
20
-98.5904019999999974
11
147.5525639999999896
21
-98.5855069999999927
0
LINE
8
BLACK
6
CONTINUOUS
10
147.5525639999999896
20
-98.5855069999999927
11
147.5653779999999813
21
-98.5761979999999909
0
LINE
8
BLACK
6
CONTINUOUS
10
147.5653779999999813
20
-98.5761979999999909
11
147.581216999999981
21
-98.5761979999999909
0
LINE
8
BLACK
6
CONTINUOUS
10
147.581216999999981
20
-98.5761979999999909
11
147.5962800000000072
21
-98.5713039999999978
0
LINE
8
BLACK
6
CONTINUOUS
10
147.5962800000000072
20
-98.5713039999999978
11
162.9962799999999845
21
-98.5713039999999978
0
LINE
8
BLACK
6
CONTINUOUS
10
162.9962799999999845
20
-98.5713039999999978
11
163.0113429999999823
21
-98.5761979999999909
0
LINE
8
BLACK
6
CONTINUOUS
10
147.6962800000000016
20
-98.7713040000000007
11
147.6962800000000016
21
-113.9713039999999893
0
LINE
8
BLACK
6
CONTINUOUS
10
147.6962800000000016
20
-113.9713039999999893
11
162.8962799999999902
21
-113.9713039999999893
0
LINE
8
BLACK
6
CONTINUOUS
10
162.8962799999999902
20
-113.9713039999999893
11
162.8962799999999902
21
-98.7713040000000007
0
LINE
8
BLACK
6
CONTINUOUS
10
162.8962799999999902
20
-98.7713040000000007
11
147.6962800000000016
21
-98.7713040000000007
0
LINE
8
BLACK
6
CONTINUOUS
10
135.6131729999999891
20
-91.273933999999997
11
135.6290119999999888
21
-91.273933999999997
0
LINE
8
BLACK
6
CONTINUOUS
10
135.6290119999999888
20
-91.273933999999997
11
135.641824999999983
21
-91.2832429999999988
0
LINE
8
BLACK
6
CONTINUOUS
10
135.641824999999983
20
-91.2832429999999988
11
135.6568890000000067
21
-91.2881379999999893
0
LINE
8
BLACK
6
CONTINUOUS
10
135.6568890000000067
20
-91.2881379999999893
11
135.6661979999999801
21
-91.3009509999999977
0
LINE
8
BLACK
6
CONTINUOUS
10
135.6661979999999801
20
-91.3009509999999977
11
135.6790120000000002
21
-91.310260999999997
0
LINE
8
BLACK
6
CONTINUOUS
10
135.6790120000000002
20
-91.310260999999997
11
135.6839060000000075
21
-91.3253239999999948
0
LINE
8
BLACK
6
CONTINUOUS
10
135.6839060000000075
20
-91.3253239999999948
11
135.6932160000000067
21
-91.3381380000000007
0
LINE
8
BLACK
6
CONTINUOUS
10
135.6932160000000067
20
-91.3381380000000007
11
135.6932160000000067
21
-91.3539770000000004
0
LINE
8
BLACK
6
CONTINUOUS
10
135.6932160000000067
20
-91.3539770000000004
11
135.6981099999999856
21
-91.3690399999999983
0
LINE
8
BLACK
6
CONTINUOUS
10
135.6981099999999856
20
-91.3690399999999983
11
135.6981099999999856
21
-98.8690399999999983
0
LINE
8
BLACK
6
CONTINUOUS
10
135.6981099999999856
20
-98.8690399999999983
11
135.6932160000000067
21
-98.8841019999999986
0
LINE
8
BLACK
6
CONTINUOUS
10
135.6932160000000067
20
-98.8841019999999986
11
135.6932160000000067
21
-98.8999419999999958
0
LINE
8
BLACK
6
CONTINUOUS
10
135.6932160000000067
20
-98.8999419999999958
11
135.6839060000000075
21
-98.91275499999999
0
LINE
8
BLACK
6
CONTINUOUS
10
135.6839060000000075
20
-98.91275499999999
11
135.6790120000000002
21
-98.9278189999999995
0
LINE
8
BLACK
6
CONTINUOUS
10
135.6790120000000002
20
-98.9278189999999995
11
135.6661979999999801
21
-98.9371280000000013
0
LINE
8
BLACK
6
CONTINUOUS
10
135.6661979999999801
20
-98.9371280000000013
11
135.6568890000000067
21
-98.949941999999993
0
LINE
8
BLACK
6
CONTINUOUS
10
135.6568890000000067
20
-98.949941999999993
11
135.641824999999983
21
-98.9548360000000002
0
LINE
8
BLACK
6
CONTINUOUS
10
135.641824999999983
20
-98.9548360000000002
11
135.6290119999999888
21
-98.9641459999999995
0
LINE
8
BLACK
6
CONTINUOUS
10
135.6290119999999888
20
-98.9641459999999995
11
135.6131729999999891
21
-98.9641459999999995
0
LINE
8
BLACK
6
CONTINUOUS
10
135.6131729999999891
20
-98.9641459999999995
11
135.5981099999999913
21
-98.9690399999999926
0
LINE
8
BLACK
6
CONTINUOUS
10
135.5981099999999913
20
-98.9690399999999926
11
131.0981099999999913
21
-98.9690399999999926
0
LINE
8
BLACK
6
CONTINUOUS
10
131.0981099999999913
20
-98.9690399999999926
11
131.0830469999999934
21
-98.9641459999999995
0
LINE
8
BLACK
6
CONTINUOUS
10
131.0830469999999934
20
-98.9641459999999995
11
131.0672079999999937
21
-98.9641459999999995
0
LINE
8
BLACK
6
CONTINUOUS
10
131.0672079999999937
20
-98.9641459999999995
11
131.0543940000000021
21
-98.9548360000000002
0
LINE
8
BLACK
6
CONTINUOUS
10
131.0543940000000021
20
-98.9548360000000002
11
131.0393310000000042
21
-98.949941999999993
0
LINE
8
BLACK
6
CONTINUOUS
10
131.0393310000000042
20
-98.949941999999993
11
131.030021000000005
21
-98.9371280000000013
0
LINE
8
BLACK
6
CONTINUOUS
10
131.030021000000005
20
-98.9371280000000013
11
131.0172079999999823
21
-98.9278189999999995
0
LINE
8
BLACK
6
CONTINUOUS
10
131.0172079999999823
20
-98.9278189999999995
11
131.012313000000006
21
-98.91275499999999
0
LINE
8
BLACK
6
CONTINUOUS
10
131.012313000000006
20
-98.91275499999999
11
131.0030040000000042
21
-98.8999419999999958
0
LINE
8
BLACK
6
CONTINUOUS
10
131.0030040000000042
20
-98.8999419999999958
11
131.0030040000000042
21
-98.8841019999999986
0
LINE
8
BLACK
6
CONTINUOUS
10
131.0030040000000042
20
-98.8841019999999986
11
130.9981099999999969
21
-98.8690399999999983
0
LINE
8
BLACK
6
CONTINUOUS
10
130.9981099999999969
20
-98.8690399999999983
11
130.9981099999999969
21
-91.3690399999999983
0
LINE
8
BLACK
6
CONTINUOUS
10
130.9981099999999969
20
-91.3690399999999983
11
131.0030040000000042
21
-91.3539770000000004
0
LINE
8
BLACK
6
CONTINUOUS
10
131.0030040000000042
20
-91.3539770000000004
11
131.0030040000000042
21
-91.3381380000000007
0
LINE
8
BLACK
6
CONTINUOUS
10
131.0030040000000042
20
-91.3381380000000007
11
131.012313000000006
21
-91.3253239999999948
0
LINE
8
BLACK
6
CONTINUOUS
10
131.012313000000006
20
-91.3253239999999948
11
131.0172079999999823
21
-91.310260999999997
0
LINE
8
BLACK
6
CONTINUOUS
10
131.0172079999999823
20
-91.310260999999997
11
131.030021000000005
21
-91.3009509999999977
0
LINE
8
BLACK
6
CONTINUOUS
10
131.030021000000005
20
-91.3009509999999977
11
131.0393310000000042
21
-91.2881379999999893
0
LINE
8
BLACK
6
CONTINUOUS
10
131.0393310000000042
20
-91.2881379999999893
11
131.0543940000000021
21
-91.2832429999999988
0
LINE
8
BLACK
6
CONTINUOUS
10
131.0543940000000021
20
-91.2832429999999988
11
131.0672079999999937
21
-91.273933999999997
0
LINE
8
BLACK
6
CONTINUOUS
10
131.0672079999999937
20
-91.273933999999997
11
131.0830469999999934
21
-91.273933999999997
0
LINE
8
BLACK
6
CONTINUOUS
10
131.0830469999999934
20
-91.273933999999997
11
131.0981099999999913
21
-91.2690399999999897
0
LINE
8
BLACK
6
CONTINUOUS
10
131.0981099999999913
20
-91.2690399999999897
11
135.5981099999999913
21
-91.2690399999999897
0
LINE
8
BLACK
6
CONTINUOUS
10
135.5981099999999913
20
-91.2690399999999897
11
135.6131729999999891
21
-91.273933999999997
0
LINE
8
BLACK
6
CONTINUOUS
10
131.1981099999999856
20
-91.4690399999999926
11
131.1981099999999856
21
-98.7690399999999897
0
LINE
8
BLACK
6
CONTINUOUS
10
131.1981099999999856
20
-98.7690399999999897
11
135.4981099999999969
21
-98.7690399999999897
0
LINE
8
BLACK
6
CONTINUOUS
10
135.4981099999999969
20
-98.7690399999999897
11
135.4981099999999969
21
-91.4690399999999926
0
LINE
8
BLACK
6
CONTINUOUS
10
135.4981099999999969
20
-91.4690399999999926
11
131.1981099999999856
21
-91.4690399999999926
0
LINE
8
BLACK
6
CONTINUOUS
10
137.7621049999999912
20
-65.3261129999999923
11
137.7779439999999909
21
-65.3261129999999923
0
LINE
8
BLACK
6
CONTINUOUS
10
137.7779439999999909
20
-65.3261129999999923
11
137.7907569999999851
21
-65.3354219999999941
0
LINE
8
BLACK
6
CONTINUOUS
10
137.7907569999999851
20
-65.3354219999999941
11
137.8058209999999804
21
-65.3403169999999989
0
LINE
8
BLACK
6
CONTINUOUS
10
137.8058209999999804
20
-65.3403169999999989
11
137.8151299999999821
21
-65.3531299999999931
0
LINE
8
BLACK
6
CONTINUOUS
10
137.8151299999999821
20
-65.3531299999999931
11
137.8279440000000022
21
-65.3624399999999923
0
LINE
8
BLACK
6
CONTINUOUS
10
137.8279440000000022
20
-65.3624399999999923
11
137.8328379999999811
21
-65.3775029999999902
0
LINE
8
BLACK
6
CONTINUOUS
10
137.8328379999999811
20
-65.3775029999999902
11
137.8421479999999804
21
-65.390316999999996
0
LINE
8
BLACK
6
CONTINUOUS
10
137.8421479999999804
20
-65.390316999999996
11
137.8421479999999804
21
-65.4061559999999957
0
LINE
8
BLACK
6
CONTINUOUS
10
137.8421479999999804
20
-65.4061559999999957
11
137.8470419999999876
21
-65.4212189999999936
0
LINE
8
BLACK
6
CONTINUOUS
10
137.8470419999999876
20
-65.4212189999999936
11
137.8470419999999876
21
-94.9281790000000001
0
LINE
8
BLACK
6
CONTINUOUS
10
137.8470419999999876
20
-94.9281790000000001
11
166.8470419999999876
21
-94.9281790000000001
0
LINE
8
BLACK
6
CONTINUOUS
10
166.8470419999999876
20
-94.9281790000000001
11
166.8470419999999876
21
-70.1503179999999986
0
LINE
8
BLACK
6
CONTINUOUS
10
166.8470419999999876
20
-70.1503179999999986
11
166.849535000000003
21
-70.14264399999999
0
LINE
8
BLACK
6
CONTINUOUS
10
166.849535000000003
20
-70.14264399999999
11
166.848273000000006
21
-70.1346750000000014
0
LINE
8
BLACK
6
CONTINUOUS
10
166.848273000000006
20
-70.1346750000000014
11
166.858902999999998
21
-70.1138100000000009
0
LINE
8
BLACK
6
CONTINUOUS
10
166.858902999999998
20
-70.1138100000000009
11
166.8661400000000015
21
-70.0915389999999974
0
LINE
8
BLACK
6
CONTINUOUS
10
166.8661400000000015
20
-70.0915389999999974
11
166.8726680000000044
21
-70.0867959999999925
0
LINE
8
BLACK
6
CONTINUOUS
10
166.8726680000000044
20
-70.0867959999999925
11
166.8763309999999933
21
-70.0796069999999958
0
LINE
8
BLACK
6
CONTINUOUS
10
166.8763309999999933
20
-70.0796069999999958
11
171.3395239999999831
21
-65.6164129999999943
0
LINE
8
BLACK
6
CONTINUOUS
10
171.3395239999999831
20
-65.6164129999999943
11
171.3467129999999941
21
-65.6127489999999938
0
LINE
8
BLACK
6
CONTINUOUS
10
171.3467129999999941
20
-65.6127489999999938
11
171.3514559999999847
21
-65.6062220000000025
0
LINE
8
BLACK
6
CONTINUOUS
10
171.3514559999999847
20
-65.6062220000000025
11
171.3737239999999815
21
-65.5989859999999965
0
LINE
8
BLACK
6
CONTINUOUS
10
171.3737239999999815
20
-65.5989859999999965
11
171.3945919999999887
21
-65.5883539999999954
0
LINE
8
BLACK
6
CONTINUOUS
10
171.3945919999999887
20
-65.5883539999999954
11
171.4025629999999865
21
-65.5896159999999924
0
LINE
8
BLACK
6
CONTINUOUS
10
171.4025629999999865
20
-65.5896159999999924
11
171.4102350000000001
21
-65.5871240000000029
0
LINE
8
BLACK
6
CONTINUOUS
10
171.4102350000000001
20
-65.5871240000000029
11
172.8114860000000022
21
-65.5871240000000029
0
LINE
8
BLACK
6
CONTINUOUS
10
172.8114860000000022
20
-65.5871240000000029
11
172.826549
21
-65.5920179999999959
0
LINE
8
BLACK
6
CONTINUOUS
10
172.826549
20
-65.5920179999999959
11
172.8423879999999997
21
-65.5920179999999959
0
LINE
8
BLACK
6
CONTINUOUS
10
172.8423879999999997
20
-65.5920179999999959
11
172.8552009999999939
21
-65.6013269999999977
0
LINE
8
BLACK
6
CONTINUOUS
10
172.8552009999999939
20
-65.6013269999999977
11
172.8702649999999892
21
-65.6062220000000025
0
LINE
8
BLACK
6
CONTINUOUS
10
172.8702649999999892
20
-65.6062220000000025
11
172.879573999999991
21
-65.6190349999999967
0
LINE
8
BLACK
6
CONTINUOUS
10
172.879573999999991
20
-65.6190349999999967
11
172.8923879999999826
21
-65.6283449999999959
0
LINE
8
BLACK
6
CONTINUOUS
10
172.8923879999999826
20
-65.6283449999999959
11
172.8972819999999899
21
-65.6434079999999938
0
LINE
8
BLACK
6
CONTINUOUS
10
172.8972819999999899
20
-65.6434079999999938
11
172.9065919999999892
21
-65.6562219999999996
0
LINE
8
BLACK
6
CONTINUOUS
10
172.9065919999999892
20
-65.6562219999999996
11
172.9065919999999892
21
-65.6720609999999994
0
LINE
8
BLACK
6
CONTINUOUS
10
172.9065919999999892
20
-65.6720609999999994
11
172.9114859999999965
21
-65.6871239999999972
0
LINE
8
BLACK
6
CONTINUOUS
10
172.9114859999999965
20
-65.6871239999999972
11
172.9114859999999965
21
-67.0485960000000034
0
LINE
8
BLACK
6
CONTINUOUS
10
172.9114859999999965
20
-67.0485960000000034
11
172.9065919999999892
21
-67.0636580000000038
0
LINE
8
BLACK
6
CONTINUOUS
10
172.9065919999999892
20
-67.0636580000000038
11
172.9065919999999892
21
-67.079498000000001
0
LINE
8
BLACK
6
CONTINUOUS
10
172.9065919999999892
20
-67.079498000000001
11
172.8972819999999899
21
-67.0923109999999951
0
LINE
8
BLACK
6
CONTINUOUS
10
172.8972819999999899
20
-67.0923109999999951
11
172.8923879999999826
21
-67.1073749999999905
0
LINE
8
BLACK
6
CONTINUOUS
10
172.8923879999999826
20
-67.1073749999999905
11
172.879573999999991
21
-67.1166839999999922
0
LINE
8
BLACK
6
CONTINUOUS
10
172.879573999999991
20
-67.1166839999999922
11
172.8702649999999892
21
-67.1294979999999981
0
LINE
8
BLACK
6
CONTINUOUS
10
172.8702649999999892
20
-67.1294979999999981
11
172.8552009999999939
21
-67.1343919999999912
0
LINE
8
BLACK
6
CONTINUOUS
10
172.8552009999999939
20
-67.1343919999999912
11
172.8423879999999997
21
-67.1437019999999904
0
LINE
8
BLACK
6
CONTINUOUS
10
172.8423879999999997
20
-67.1437019999999904
11
172.826549
21
-67.1437019999999904
0
LINE
8
BLACK
6
CONTINUOUS
10
172.826549
20
-67.1437019999999904
11
172.8114860000000022
21
-67.1485959999999977
0
LINE
8
BLACK
6
CONTINUOUS
10
172.8114860000000022
20
-67.1485959999999977
11
172.1101069999999993
21
-67.1485959999999977
0
LINE
8
BLACK
6
CONTINUOUS
10
172.1101069999999993
20
-67.1485959999999977
11
172.1101069999999993
21
-69.2892159999999961
0
LINE
8
BLACK
6
CONTINUOUS
10
172.1101069999999993
20
-69.2892159999999961
11
172.105212999999992
21
-69.3042779999999965
0
LINE
8
BLACK
6
CONTINUOUS
10
172.105212999999992
20
-69.3042779999999965
11
172.105212999999992
21
-69.3201179999999937
0
LINE
8
BLACK
6
CONTINUOUS
10
172.105212999999992
20
-69.3201179999999937
11
172.0959029999999927
21
-69.3329310000000021
0
LINE
8
BLACK
6
CONTINUOUS
10
172.0959029999999927
20
-69.3329310000000021
11
172.0910089999999855
21
-69.3479949999999974
0
LINE
8
BLACK
6
CONTINUOUS
10
172.0910089999999855
20
-69.3479949999999974
11
172.0781949999999938
21
-69.3573039999999992
0
LINE
8
BLACK
6
CONTINUOUS
10
172.0781949999999938
20
-69.3573039999999992
11
172.068885999999992
21
-69.3701179999999908
0
LINE
8
BLACK
6
CONTINUOUS
10
172.068885999999992
20
-69.3701179999999908
11
172.0538219999999967
21
-69.3750119999999981
0
LINE
8
BLACK
6
CONTINUOUS
10
172.0538219999999967
20
-69.3750119999999981
11
172.0410090000000025
21
-69.3843219999999974
0
LINE
8
BLACK
6
CONTINUOUS
10
172.0410090000000025
20
-69.3843219999999974
11
172.0251700000000028
21
-69.3843219999999974
0
LINE
8
BLACK
6
CONTINUOUS
10
172.0251700000000028
20
-69.3843219999999974
11
172.010107000000005
21
-69.3892159999999905
0
LINE
8
BLACK
6
CONTINUOUS
10
172.010107000000005
20
-69.3892159999999905
11
169.555831999999981
21
-69.3892159999999905
0
LINE
8
BLACK
6
CONTINUOUS
10
169.555831999999981
20
-69.3892159999999905
11
169.350403
21
-69.599654000000001
0
LINE
8
BLACK
6
CONTINUOUS
10
169.350403
20
-69.599654000000001
11
169.350403
21
-73.7910660000000007
0
LINE
8
BLACK
6
CONTINUOUS
10
169.350403
20
-73.7910660000000007
11
172.7580470000000048
21
-73.7910660000000007
0
LINE
8
BLACK
6
CONTINUOUS
10
172.7580470000000048
20
-73.7910660000000007
11
172.7731100000000026
21
-73.7959599999999938
0
LINE
8
BLACK
6
CONTINUOUS
10
172.7731100000000026
20
-73.7959599999999938
11
172.7889490000000023
21
-73.7959599999999938
0
LINE
8
BLACK
6
CONTINUOUS
10
172.7889490000000023
20
-73.7959599999999938
11
172.8017619999999965
21
-73.8052689999999956
0
LINE
8
BLACK
6
CONTINUOUS
10
172.8017619999999965
20
-73.8052689999999956
11
172.8168259999999918
21
-73.8101640000000003
0
LINE
8
BLACK
6
CONTINUOUS
10
172.8168259999999918
20
-73.8101640000000003
11
172.8261349999999936
21
-73.8229769999999945
0
LINE
8
BLACK
6
CONTINUOUS
10
172.8261349999999936
20
-73.8229769999999945
11
172.8389489999999853
21
-73.8322869999999938
0
LINE
8
BLACK
6
CONTINUOUS
10
172.8389489999999853
20
-73.8322869999999938
11
172.8438429999999926
21
-73.8473499999999916
0
LINE
8
BLACK
6
CONTINUOUS
10
172.8438429999999926
20
-73.8473499999999916
11
172.8531529999999918
21
-73.8601639999999975
0
LINE
8
BLACK
6
CONTINUOUS
10
172.8531529999999918
20
-73.8601639999999975
11
172.8531529999999918
21
-73.8760029999999972
0
LINE
8
BLACK
6
CONTINUOUS
10
172.8531529999999918
20
-73.8760029999999972
11
172.8580469999999991
21
-73.891065999999995
0
LINE
8
BLACK
6
CONTINUOUS
10
172.8580469999999991
20
-73.891065999999995
11
172.8580469999999991
21
-76.8788519999999949
0
LINE
8
BLACK
6
CONTINUOUS
10
172.8580469999999991
20
-76.8788519999999949
11
172.8531529999999918
21
-76.8939139999999952
0
LINE
8
BLACK
6
CONTINUOUS
10
172.8531529999999918
20
-76.8939139999999952
11
172.8531529999999918
21
-76.9097539999999924
0
LINE
8
BLACK
6
CONTINUOUS
10
172.8531529999999918
20
-76.9097539999999924
11
172.8438429999999926
21
-76.9225670000000008
0
LINE
8
BLACK
6
CONTINUOUS
10
172.8438429999999926
20
-76.9225670000000008
11
172.8389489999999853
21
-76.9376309999999961
0
LINE
8
BLACK
6
CONTINUOUS
10
172.8389489999999853
20
-76.9376309999999961
11
172.8261349999999936
21
-76.9469399999999979
0
LINE
8
BLACK
6
CONTINUOUS
10
172.8261349999999936
20
-76.9469399999999979
11
172.8168259999999918
21
-76.9597539999999896
0
LINE
8
BLACK
6
CONTINUOUS
10
172.8168259999999918
20
-76.9597539999999896
11
172.8017619999999965
21
-76.9646479999999968
0
LINE
8
BLACK
6
CONTINUOUS
10
172.8017619999999965
20
-76.9646479999999968
11
172.7889490000000023
21
-76.9739579999999961
0
LINE
8
BLACK
6
CONTINUOUS
10
172.7889490000000023
20
-76.9739579999999961
11
172.7731100000000026
21
-76.9739579999999961
0
LINE
8
BLACK
6
CONTINUOUS
10
172.7731100000000026
20
-76.9739579999999961
11
172.7580470000000048
21
-76.9788520000000034
0
LINE
8
BLACK
6
CONTINUOUS
10
172.7580470000000048
20
-76.9788520000000034
11
169.1281099999999924
21
-76.9788520000000034
0
LINE
8
BLACK
6
CONTINUOUS
10
169.1281099999999924
20
-76.9788520000000034
11
169.1281099999999924
21
-84.2788520000000005
0
LINE
8
BLACK
6
CONTINUOUS
10
169.1281099999999924
20
-84.2788520000000005
11
172.7580470000000048
21
-84.2788520000000005
0
LINE
8
BLACK
6
CONTINUOUS
10
172.7580470000000048
20
-84.2788520000000005
11
172.7731100000000026
21
-84.2837459999999936
0
LINE
8
BLACK
6
CONTINUOUS
10
172.7731100000000026
20
-84.2837459999999936
11
172.7889490000000023
21
-84.2837459999999936
0
LINE
8
BLACK
6
CONTINUOUS
10
172.7889490000000023
20
-84.2837459999999936
11
172.8017619999999965
21
-84.2930549999999954
0
LINE
8
BLACK
6
CONTINUOUS
10
172.8017619999999965
20
-84.2930549999999954
11
172.8168259999999918
21
-84.2979500000000002
0
LINE
8
BLACK
6
CONTINUOUS
10
172.8168259999999918
20
-84.2979500000000002
11
172.8261349999999936
21
-84.3107629999999943
0
LINE
8
BLACK
6
CONTINUOUS
10
172.8261349999999936
20
-84.3107629999999943
11
172.8389489999999853
21
-84.3200729999999936
0
LINE
8
BLACK
6
CONTINUOUS
10
172.8389489999999853
20
-84.3200729999999936
11
172.8438429999999926
21
-84.3351359999999914
0
LINE
8
BLACK
6
CONTINUOUS
10
172.8438429999999926
20
-84.3351359999999914
11
172.8531529999999918
21
-84.3479499999999973
0
LINE
8
BLACK
6
CONTINUOUS
10
172.8531529999999918
20
-84.3479499999999973
11
172.8531529999999918
21
-84.363788999999997
0
LINE
8
BLACK
6
CONTINUOUS
10
172.8531529999999918
20
-84.363788999999997
11
172.8580469999999991
21
-84.3788519999999949
0
LINE
8
BLACK
6
CONTINUOUS
10
172.8580469999999991
20
-84.3788519999999949
11
172.8580469999999991
21
-106.3866149999999919
0
LINE
8
BLACK
6
CONTINUOUS
10
172.8580469999999991
20
-106.3866149999999919
11
172.8555539999999837
21
-106.3942859999999939
0
LINE
8
BLACK
6
CONTINUOUS
10
172.8555539999999837
20
-106.3942859999999939
11
172.8568169999999782
21
-106.4022579999999891
0
LINE
8
BLACK
6
CONTINUOUS
10
172.8568169999999782
20
-106.4022579999999891
11
172.8461839999999938
21
-106.4231240000000014
0
LINE
8
BLACK
6
CONTINUOUS
10
172.8461839999999938
20
-106.4231240000000014
11
172.8389489999999853
21
-106.4453939999999932
0
LINE
8
BLACK
6
CONTINUOUS
10
172.8389489999999853
20
-106.4453939999999932
11
172.8324199999999848
21
-106.450136999999998
0
LINE
8
BLACK
6
CONTINUOUS
10
172.8324199999999848
20
-106.450136999999998
11
172.8287579999999934
21
-106.4573249999999973
0
LINE
8
BLACK
6
CONTINUOUS
10
172.8287579999999934
20
-106.4573249999999973
11
162.7864270000000033
21
-116.4996569999999991
0
LINE
8
BLACK
6
CONTINUOUS
10
162.7864270000000033
20
-116.4996569999999991
11
162.7792369999999949
21
-116.5033189999999905
0
LINE
8
BLACK
6
CONTINUOUS
10
162.7792369999999949
20
-116.5033189999999905
11
162.7744950000000017
21
-116.509847999999991
0
LINE
8
BLACK
6
CONTINUOUS
10
162.7744950000000017
20
-116.509847999999991
11
162.7522229999999865
21
-116.517083999999997
0
LINE
8
BLACK
6
CONTINUOUS
10
162.7522229999999865
20
-116.517083999999997
11
162.7313589999999976
21
-116.5277150000000006
0
LINE
8
BLACK
6
CONTINUOUS
10
162.7313589999999976
20
-116.5277150000000006
11
162.7233889999999974
21
-116.5264519999999919
0
LINE
8
BLACK
6
CONTINUOUS
10
162.7233889999999974
20
-116.5264519999999919
11
162.7157159999999863
21
-116.5289459999999906
0
LINE
8
BLACK
6
CONTINUOUS
10
162.7157159999999863
20
-116.5289459999999906
11
155.6280160000000024
21
-116.5289459999999906
0
LINE
8
BLACK
6
CONTINUOUS
10
155.6280160000000024
20
-116.5289459999999906
11
155.6280160000000024
21
-120.6261200000000002
0
LINE
8
BLACK
6
CONTINUOUS
10
155.6280160000000024
20
-120.6261200000000002
11
155.6231219999999951
21
-120.6411820000000006
0
LINE
8
BLACK
6
CONTINUOUS
10
155.6231219999999951
20
-120.6411820000000006
11
155.6231219999999951
21
-120.6570219999999978
0
LINE
8
BLACK
6
CONTINUOUS
10
155.6231219999999951
20
-120.6570219999999978
11
155.6138119999999958
21
-120.669834999999992
0
LINE
8
BLACK
6
CONTINUOUS
10
155.6138119999999958
20
-120.669834999999992
11
155.6089179999999885
21
-120.6848990000000015
0
LINE
8
BLACK
6
CONTINUOUS
10
155.6089179999999885
20
-120.6848990000000015
11
155.5961039999999969
21
-120.6942079999999891
0
LINE
8
BLACK
6
CONTINUOUS
10
155.5961039999999969
20
-120.6942079999999891
11
155.5867949999999951
21
-120.7070219999999949
0
LINE
8
BLACK
6
CONTINUOUS
10
155.5867949999999951
20
-120.7070219999999949
11
155.5717309999999998
21
-120.711915999999988
0
LINE
8
BLACK
6
CONTINUOUS
10
155.5717309999999998
20
-120.711915999999988
11
155.5589180000000056
21
-120.7212260000000015
0
LINE
8
BLACK
6
CONTINUOUS
10
155.5589180000000056
20
-120.7212260000000015
11
155.5430790000000059
21
-120.7212260000000015
0
LINE
8
BLACK
6
CONTINUOUS
10
155.5430790000000059
20
-120.7212260000000015
11
155.5280159999999796
21
-120.7261199999999945
0
LINE
8
BLACK
6
CONTINUOUS
10
155.5280159999999796
20
-120.7261199999999945
11
151.1818279999999959
21
-120.7261199999999945
0
LINE
8
BLACK
6
CONTINUOUS
10
151.1818279999999959
20
-120.7261199999999945
11
151.1667649999999981
21
-120.7212260000000015
0
LINE
8
BLACK
6
CONTINUOUS
10
151.1667649999999981
20
-120.7212260000000015
11
151.1509259999999983
21
-120.7212260000000015
0
LINE
8
BLACK
6
CONTINUOUS
10
151.1509259999999983
20
-120.7212260000000015
11
151.1381120000000067
21
-120.711915999999988
0
LINE
8
BLACK
6
CONTINUOUS
10
151.1381120000000067
20
-120.711915999999988
11
151.1230489999999804
21
-120.7070219999999949
0
LINE
8
BLACK
6
CONTINUOUS
10
151.1230489999999804
20
-120.7070219999999949
11
151.1137389999999812
21
-120.6942079999999891
0
LINE
8
BLACK
6
CONTINUOUS
10
151.1137389999999812
20
-120.6942079999999891
11
151.100925999999987
21
-120.6848990000000015
0
LINE
8
BLACK
6
CONTINUOUS
10
151.100925999999987
20
-120.6848990000000015
11
151.0960309999999822
21
-120.669834999999992
0
LINE
8
BLACK
6
CONTINUOUS
10
151.0960309999999822
20
-120.669834999999992
11
151.0867219999999804
21
-120.6570219999999978
0
LINE
8
BLACK
6
CONTINUOUS
10
151.0867219999999804
20
-120.6570219999999978
11
151.0867219999999804
21
-120.6411820000000006
0
LINE
8
BLACK
6
CONTINUOUS
10
151.0867219999999804
20
-120.6411820000000006
11
151.0818280000000016
21
-120.6261200000000002
0
LINE
8
BLACK
6
CONTINUOUS
10
151.0818280000000016
20
-120.6261200000000002
11
151.0818280000000016
21
-116.3690539999999913
0
LINE
8
BLACK
6
CONTINUOUS
10
151.0818280000000016
20
-116.3690539999999913
11
147.0640070000000037
21
-116.3690539999999913
0
LINE
8
BLACK
6
CONTINUOUS
10
147.0640070000000037
20
-116.3690539999999913
11
147.05633499999999
21
-116.3665609999999901
0
LINE
8
BLACK
6
CONTINUOUS
10
147.05633499999999
20
-116.3665609999999901
11
147.0483639999999923
21
-116.3678239999999988
0
LINE
8
BLACK
6
CONTINUOUS
10
147.0483639999999923
20
-116.3678239999999988
11
147.0274969999999826
21
-116.3571910000000003
0
LINE
8
BLACK
6
CONTINUOUS
10
147.0274969999999826
20
-116.3571910000000003
11
147.0052279999999882
21
-116.3499559999999917
0
LINE
8
BLACK
6
CONTINUOUS
10
147.0052279999999882
20
-116.3499559999999917
11
147.0004840000000002
21
-116.3434269999999913
0
LINE
8
BLACK
6
CONTINUOUS
10
147.0004840000000002
20
-116.3434269999999913
11
146.9932969999999841
21
-116.3397649999999999
0
LINE
8
BLACK
6
CONTINUOUS
10
146.9932969999999841
20
-116.3397649999999999
11
139.5661670000000072
21
-108.912635999999992
0
LINE
8
BLACK
6
CONTINUOUS
10
139.5661670000000072
20
-108.912635999999992
11
139.5625039999999899
21
-108.9054459999999978
0
LINE
8
BLACK
6
CONTINUOUS
10
139.5625039999999899
20
-108.9054459999999978
11
139.5559759999999869
21
-108.9007039999999904
0
LINE
8
BLACK
6
CONTINUOUS
10
139.5559759999999869
20
-108.9007039999999904
11
139.5487389999999834
21
-108.8784319999999894
0
LINE
8
BLACK
6
CONTINUOUS
10
139.5487389999999834
20
-108.8784319999999894
11
139.5381089999999915
21
-108.8575680000000006
0
LINE
8
BLACK
6
CONTINUOUS
10
139.5381089999999915
20
-108.8575680000000006
11
139.5393709999999885
21
-108.8495980000000003
0
LINE
8
BLACK
6
CONTINUOUS
10
139.5393709999999885
20
-108.8495980000000003
11
139.5368780000000015
21
-108.8419249999999892
0
LINE
8
BLACK
6
CONTINUOUS
10
139.5368780000000015
20
-108.8419249999999892
11
139.5368780000000015
21
-101.3168050000000022
0
LINE
8
BLACK
6
CONTINUOUS
10
139.5368780000000015
20
-101.3168050000000022
11
129.6488009999999917
21
-101.3838739999999916
0
LINE
8
BLACK
6
CONTINUOUS
10
129.6488009999999917
20
-101.3838739999999916
11
129.6333899999999915
21
-101.3789819999999935
0
LINE
8
BLACK
6
CONTINUOUS
10
129.6333899999999915
20
-101.3789819999999935
11
129.6172210000000007
21
-101.3789819999999935
0
LINE
8
BLACK
6
CONTINUOUS
10
129.6172210000000007
20
-101.3789819999999935
11
129.6046749999999861
21
-101.3698669999999993
0
LINE
8
BLACK
6
CONTINUOUS
10
129.6046749999999861
20
-101.3698669999999993
11
129.5898939999999868
21
-101.3651749999999936
0
LINE
8
BLACK
6
CONTINUOUS
10
129.5898939999999868
20
-101.3651749999999936
11
129.5803009999999915
21
-101.3521579999999886
0
LINE
8
BLACK
6
CONTINUOUS
10
129.5803009999999915
20
-101.3521579999999886
11
129.5672209999999893
21
-101.3426549999999935
0
LINE
8
BLACK
6
CONTINUOUS
10
129.5672209999999893
20
-101.3426549999999935
11
129.5624279999999828
21
-101.3279050000000012
0
LINE
8
BLACK
6
CONTINUOUS
10
129.5624279999999828
20
-101.3279050000000012
11
129.5532289999999875
21
-101.3154219999999981
0
LINE
8
BLACK
6
CONTINUOUS
10
129.5532289999999875
20
-101.3154219999999981
11
129.553118999999981
21
-101.2992529999999931
0
LINE
8
BLACK
6
CONTINUOUS
10
129.553118999999981
20
-101.2992529999999931
11
129.5481230000000039
21
-101.2838759999999922
0
LINE
8
BLACK
6
CONTINUOUS
10
129.5481230000000039
20
-101.2838759999999922
11
129.5481230000000039
21
-82.4803769999999901
0
LINE
8
BLACK
6
CONTINUOUS
10
129.5481230000000039
20
-82.4803769999999901
11
129.5530169999999828
21
-82.4653139999999922
0
LINE
8
BLACK
6
CONTINUOUS
10
129.5530169999999828
20
-82.4653139999999922
11
129.5530169999999828
21
-82.4494749999999925
0
LINE
8
BLACK
6
CONTINUOUS
10
129.5530169999999828
20
-82.4494749999999925
11
129.5623259999999846
21
-82.4366610000000009
0
LINE
8
BLACK
6
CONTINUOUS
10
129.5623259999999846
20
-82.4366610000000009
11
129.5672209999999893
21
-82.421598000000003
0
LINE
8
BLACK
6
CONTINUOUS
10
129.5672209999999893
20
-82.421598000000003
11
129.5800339999999835
21
-82.4122879999999896
0
LINE
8
BLACK
6
CONTINUOUS
10
129.5800339999999835
20
-82.4122879999999896
11
129.5893439999999828
21
-82.3994749999999954
0
LINE
8
BLACK
6
CONTINUOUS
10
129.5893439999999828
20
-82.3994749999999954
11
129.6044069999999806
21
-82.3945799999999906
0
LINE
8
BLACK
6
CONTINUOUS
10
129.6044069999999806
20
-82.3945799999999906
11
129.6172210000000007
21
-82.385271000000003
0
LINE
8
BLACK
6
CONTINUOUS
10
129.6172210000000007
20
-82.385271000000003
11
129.6330600000000004
21
-82.385271000000003
0
LINE
8
BLACK
6
CONTINUOUS
10
129.6330600000000004
20
-82.385271000000003
11
129.6481229999999982
21
-82.3803769999999957
0
LINE
8
BLACK
6
CONTINUOUS
10
129.6481229999999982
20
-82.3803769999999957
11
133.3791669999999954
21
-82.3803769999999957
0
LINE
8
BLACK
6
CONTINUOUS
10
133.3791669999999954
20
-82.3803769999999957
11
133.3791669999999954
21
-72.3803769999999957
0
LINE
8
BLACK
6
CONTINUOUS
10
133.3791669999999954
20
-72.3803769999999957
11
122.2003109999999992
21
-72.3803769999999957
0
LINE
8
BLACK
6
CONTINUOUS
10
122.2003109999999992
20
-72.3803769999999957
11
122.1852480000000014
21
-72.3754830000000027
0
LINE
8
BLACK
6
CONTINUOUS
10
122.1852480000000014
20
-72.3754830000000027
11
122.1694089999999875
21
-72.3754830000000027
0
LINE
8
BLACK
6
CONTINUOUS
10
122.1694089999999875
20
-72.3754830000000027
11
122.1565949999999958
21
-72.3661730000000034
0
LINE
8
BLACK
6
CONTINUOUS
10
122.1565949999999958
20
-72.3661730000000034
11
122.141531999999998
21
-72.3612789999999961
0
LINE
8
BLACK
6
CONTINUOUS
10
122.141531999999998
20
-72.3612789999999961
11
122.1322219999999987
21
-72.3484649999999903
0
LINE
8
BLACK
6
CONTINUOUS
10
122.1322219999999987
20
-72.3484649999999903
11
122.1194089999999903
21
-72.3391560000000027
0
LINE
8
BLACK
6
CONTINUOUS
10
122.1194089999999903
20
-72.3391560000000027
11
122.1145139999999998
21
-72.3240919999999932
0
LINE
8
BLACK
6
CONTINUOUS
10
122.1145139999999998
20
-72.3240919999999932
11
122.105204999999998
21
-72.311278999999999
0
LINE
8
BLACK
6
CONTINUOUS
10
122.105204999999998
20
-72.311278999999999
11
122.105204999999998
21
-72.2954390000000018
0
LINE
8
BLACK
6
CONTINUOUS
10
122.105204999999998
20
-72.2954390000000018
11
122.1003109999999907
21
-72.2803770000000014
0
LINE
8
BLACK
6
CONTINUOUS
10
122.1003109999999907
20
-72.2803770000000014
11
122.1003109999999907
21
-67.4212189999999936
0
LINE
8
BLACK
6
CONTINUOUS
10
122.1003109999999907
20
-67.4212189999999936
11
122.1028039999999919
21
-67.4135449999999992
0
LINE
8
BLACK
6
CONTINUOUS
10
122.1028039999999919
20
-67.4135449999999992
11
122.1015419999999949
21
-67.4055759999999964
0
LINE
8
BLACK
6
CONTINUOUS
10
122.1015419999999949
20
-67.4055759999999964
11
122.112172000000001
21
-67.3847109999999958
0
LINE
8
BLACK
6
CONTINUOUS
10
122.112172000000001
20
-67.3847109999999958
11
122.1194089999999903
21
-67.3624399999999923
0
LINE
8
BLACK
6
CONTINUOUS
10
122.1194089999999903
20
-67.3624399999999923
11
122.1259369999999933
21
-67.3576970000000017
0
LINE
8
BLACK
6
CONTINUOUS
10
122.1259369999999933
20
-67.3576970000000017
11
122.1295999999999964
21
-67.3505079999999907
0
LINE
8
BLACK
6
CONTINUOUS
10
122.1295999999999964
20
-67.3505079999999907
11
124.1295999999999964
21
-65.3505079999999907
0
LINE
8
BLACK
6
CONTINUOUS
10
124.1295999999999964
20
-65.3505079999999907
11
124.1367889999999932
21
-65.3468450000000018
0
LINE
8
BLACK
6
CONTINUOUS
10
124.1367889999999932
20
-65.3468450000000018
11
124.141531999999998
21
-65.3403169999999989
0
LINE
8
BLACK
6
CONTINUOUS
10
124.141531999999998
20
-65.3403169999999989
11
124.1638030000000015
21
-65.3330799999999954
0
LINE
8
BLACK
6
CONTINUOUS
10
124.1638030000000015
20
-65.3330799999999954
11
124.1846679999999878
21
-65.3224500000000035
0
LINE
8
BLACK
6
CONTINUOUS
10
124.1846679999999878
20
-65.3224500000000035
11
124.1926369999999906
21
-65.3237120000000004
0
LINE
8
BLACK
6
CONTINUOUS
10
124.1926369999999906
20
-65.3237120000000004
11
124.2003109999999992
21
-65.3212189999999993
0
LINE
8
BLACK
6
CONTINUOUS
10
124.2003109999999992
20
-65.3212189999999993
11
137.7470419999999933
21
-65.3212189999999993
0
LINE
8
BLACK
6
CONTINUOUS
10
137.7470419999999933
20
-65.3212189999999993
11
137.7621049999999912
21
-65.3261129999999923
0
LINE
8
BLACK
6
CONTINUOUS
10
124.2417329999999964
20
-65.5212190000000021
11
122.3003109999999936
21
-67.4626409999999908
0
LINE
8
BLACK
6
CONTINUOUS
10
122.3003109999999936
20
-67.4626409999999908
11
122.3003109999999936
21
-72.1803769999999929
0
LINE
8
BLACK
6
CONTINUOUS
10
122.3003109999999936
20
-72.1803769999999929
11
133.4791669999999897
21
-72.1803769999999929
0
LINE
8
BLACK
6
CONTINUOUS
10
133.4791669999999897
20
-72.1803769999999929
11
133.4942299999999875
21
-72.1852710000000002
0
LINE
8
BLACK
6
CONTINUOUS
10
133.4942299999999875
20
-72.1852710000000002
11
133.5100689999999872
21
-72.1852710000000002
0
LINE
8
BLACK
6
CONTINUOUS
10
133.5100689999999872
20
-72.1852710000000002
11
133.5228819999999814
21
-72.194580000000002
0
LINE
8
BLACK
6
CONTINUOUS
10
133.5228819999999814
20
-72.194580000000002
11
133.5379460000000051
21
-72.1994749999999925
0
LINE
8
BLACK
6
CONTINUOUS
10
133.5379460000000051
20
-72.1994749999999925
11
133.5472550000000069
21
-72.2122880000000009
0
LINE
8
BLACK
6
CONTINUOUS
10
133.5472550000000069
20
-72.2122880000000009
11
133.5600689999999986
21
-72.2215980000000002
0
LINE
8
BLACK
6
CONTINUOUS
10
133.5600689999999986
20
-72.2215980000000002
11
133.5649630000000059
21
-72.236660999999998
0
LINE
8
BLACK
6
CONTINUOUS
10
133.5649630000000059
20
-72.236660999999998
11
133.5742730000000051
21
-72.2494749999999897
0
LINE
8
BLACK
6
CONTINUOUS
10
133.5742730000000051
20
-72.2494749999999897
11
133.5742730000000051
21
-72.2653140000000036
0
LINE
8
BLACK
6
CONTINUOUS
10
133.5742730000000051
20
-72.2653140000000036
11
133.579166999999984
21
-72.2803770000000014
0
LINE
8
BLACK
6
CONTINUOUS
10
133.579166999999984
20
-72.2803770000000014
11
133.579166999999984
21
-82.4803769999999901
0
LINE
8
BLACK
6
CONTINUOUS
10
133.579166999999984
20
-82.4803769999999901
11
133.5742730000000051
21
-82.4954389999999904
0
LINE
8
BLACK
6
CONTINUOUS
10
133.5742730000000051
20
-82.4954389999999904
11
133.5742730000000051
21
-82.5112790000000018
0
LINE
8
BLACK
6
CONTINUOUS
10
133.5742730000000051
20
-82.5112790000000018
11
133.5649630000000059
21
-82.524091999999996
0
LINE
8
BLACK
6
CONTINUOUS
10
133.5649630000000059
20
-82.524091999999996
11
133.5600689999999986
21
-82.5391559999999913
0
LINE
8
BLACK
6
CONTINUOUS
10
133.5600689999999986
20
-82.5391559999999913
11
133.5472550000000069
21
-82.5484649999999931
0
LINE
8
BLACK
6
CONTINUOUS
10
133.5472550000000069
20
-82.5484649999999931
11
133.5379460000000051
21
-82.561278999999999
0
LINE
8
BLACK
6
CONTINUOUS
10
133.5379460000000051
20
-82.561278999999999
11
133.5228819999999814
21
-82.566172999999992
0
LINE
8
BLACK
6
CONTINUOUS
10
133.5228819999999814
20
-82.566172999999992
11
133.5100689999999872
21
-82.5754829999999913
0
LINE
8
BLACK
6
CONTINUOUS
10
133.5100689999999872
20
-82.5754829999999913
11
133.4942299999999875
21
-82.5754829999999913
0
LINE
8
BLACK
6
CONTINUOUS
10
133.4942299999999875
20
-82.5754829999999913
11
133.4791669999999897
21
-82.5803769999999986
0
LINE
8
BLACK
6
CONTINUOUS
10
133.4791669999999897
20
-82.5803769999999986
11
129.7481229999999925
21
-82.5803769999999986
0
LINE
8
BLACK
6
CONTINUOUS
10
129.7481229999999925
20
-82.5803769999999986
11
129.7481229999999925
21
-101.1831949999999978
0
LINE
8
BLACK
6
CONTINUOUS
10
129.7481229999999925
20
-101.1831949999999978
11
139.6362000000000023
21
-101.1161269999999917
0
LINE
8
BLACK
6
CONTINUOUS
10
139.6362000000000023
20
-101.1161269999999917
11
139.6516110000000026
21
-101.1210189999999898
0
LINE
8
BLACK
6
CONTINUOUS
10
139.6516110000000026
20
-101.1210189999999898
11
139.6677799999999934
21
-101.1210189999999898
0
LINE
8
BLACK
6
CONTINUOUS
10
139.6677799999999934
20
-101.1210189999999898
11
139.6803249999999821
21
-101.1301330000000007
0
LINE
8
BLACK
6
CONTINUOUS
10
139.6803249999999821
20
-101.1301330000000007
11
139.6951070000000072
21
-101.1348259999999897
0
LINE
8
BLACK
6
CONTINUOUS
10
139.6951070000000072
20
-101.1348259999999897
11
139.7046990000000051
21
-101.1478419999999971
0
LINE
8
BLACK
6
CONTINUOUS
10
139.7046990000000051
20
-101.1478419999999971
11
139.7177800000000047
21
-101.1573459999999898
0
LINE
8
BLACK
6
CONTINUOUS
10
139.7177800000000047
20
-101.1573459999999898
11
139.7225719999999853
21
-101.1720949999999988
0
LINE
8
BLACK
6
CONTINUOUS
10
139.7225719999999853
20
-101.1720949999999988
11
139.7317720000000065
21
-101.1845789999999994
0
LINE
8
BLACK
6
CONTINUOUS
10
139.7317720000000065
20
-101.1845789999999994
11
139.7318809999999871
21
-101.2007479999999902
0
LINE
8
BLACK
6
CONTINUOUS
10
139.7318809999999871
20
-101.2007479999999902
11
139.7368779999999902
21
-101.216124999999991
0
LINE
8
BLACK
6
CONTINUOUS
10
139.7368779999999902
20
-101.216124999999991
11
139.7368779999999902
21
-108.800502999999992
0
LINE
8
BLACK
6
CONTINUOUS
10
139.7368779999999902
20
-108.800502999999992
11
147.1054279999999892
21
-116.1690539999999885
0
LINE
8
BLACK
6
CONTINUOUS
10
147.1054279999999892
20
-116.1690539999999885
11
151.1818279999999959
21
-116.1690539999999885
0
LINE
8
BLACK
6
CONTINUOUS
10
151.1818279999999959
20
-116.1690539999999885
11
151.1968909999999937
21
-116.1739479999999958
0
LINE
8
BLACK
6
CONTINUOUS
10
151.1968909999999937
20
-116.1739479999999958
11
151.2127299999999934
21
-116.1739479999999958
0
LINE
8
BLACK
6
CONTINUOUS
10
151.2127299999999934
20
-116.1739479999999958
11
151.2255429999999876
21
-116.1832569999999976
0
LINE
8
BLACK
6
CONTINUOUS
10
151.2255429999999876
20
-116.1832569999999976
11
151.2406069999999829
21
-116.1881519999999881
0
LINE
8
BLACK
6
CONTINUOUS
10
151.2406069999999829
20
-116.1881519999999881
11
151.2499159999999847
21
-116.2009649999999965
0
LINE
8
BLACK
6
CONTINUOUS
10
151.2499159999999847
20
-116.2009649999999965
11
151.2627300000000048
21
-116.2102749999999958
0
LINE
8
BLACK
6
CONTINUOUS
10
151.2627300000000048
20
-116.2102749999999958
11
151.2676239999999837
21
-116.2253379999999936
0
LINE
8
BLACK
6
CONTINUOUS
10
151.2676239999999837
20
-116.2253379999999936
11
151.2769339999999829
21
-116.2381519999999995
0
LINE
8
BLACK
6
CONTINUOUS
10
151.2769339999999829
20
-116.2381519999999995
11
151.2769339999999829
21
-116.2539909999999992
0
LINE
8
BLACK
6
CONTINUOUS
10
151.2769339999999829
20
-116.2539909999999992
11
151.2818279999999902
21
-116.269053999999997
0
LINE
8
BLACK
6
CONTINUOUS
10
151.2818279999999902
20
-116.269053999999997
11
151.2818279999999902
21
-120.5261199999999917
0
LINE
8
BLACK
6
CONTINUOUS
10
151.2818279999999902
20
-120.5261199999999917
11
155.4280159999999853
21
-120.5261199999999917
0
LINE
8
BLACK
6
CONTINUOUS
10
155.4280159999999853
20
-120.5261199999999917
11
155.4280159999999853
21
-116.4289459999999963
0
LINE
8
BLACK
6
CONTINUOUS
10
155.4280159999999853
20
-116.4289459999999963
11
155.4329099999999926
21
-116.4138829999999984
0
LINE
8
BLACK
6
CONTINUOUS
10
155.4329099999999926
20
-116.4138829999999984
11
155.4329099999999926
21
-116.3980439999999987
0
LINE
8
BLACK
6
CONTINUOUS
10
155.4329099999999926
20
-116.3980439999999987
11
155.4422189999999944
21
-116.3852299999999929
0
LINE
8
BLACK
6
CONTINUOUS
10
155.4422189999999944
20
-116.3852299999999929
11
155.4471139999999991
21
-116.370166999999995
0
LINE
8
BLACK
6
CONTINUOUS
10
155.4471139999999991
20
-116.370166999999995
11
155.4599269999999933
21
-116.3608569999999958
0
LINE
8
BLACK
6
CONTINUOUS
10
155.4599269999999933
20
-116.3608569999999958
11
155.4692369999999926
21
-116.3480440000000016
0
LINE
8
BLACK
6
CONTINUOUS
10
155.4692369999999926
20
-116.3480440000000016
11
155.4842999999999904
21
-116.3431489999999968
0
LINE
8
BLACK
6
CONTINUOUS
10
155.4842999999999904
20
-116.3431489999999968
11
155.4971139999999821
21
-116.333839999999995
0
LINE
8
BLACK
6
CONTINUOUS
10
155.4971139999999821
20
-116.333839999999995
11
155.5129529999999818
21
-116.333839999999995
0
LINE
8
BLACK
6
CONTINUOUS
10
155.5129529999999818
20
-116.333839999999995
11
155.5280159999999796
21
-116.3289459999999877
0
LINE
8
BLACK
6
CONTINUOUS
10
155.5280159999999796
20
-116.3289459999999877
11
162.6742940000000033
21
-116.3289459999999877
0
LINE
8
BLACK
6
CONTINUOUS
10
162.6742940000000033
20
-116.3289459999999877
11
172.6580469999999821
21
-106.3451929999999948
0
LINE
8
BLACK
6
CONTINUOUS
10
172.6580469999999821
20
-106.3451929999999948
11
172.6580469999999821
21
-84.4788519999999892
0
LINE
8
BLACK
6
CONTINUOUS
10
172.6580469999999821
20
-84.4788519999999892
11
169.0281099999999981
21
-84.4788519999999892
0
LINE
8
BLACK
6
CONTINUOUS
10
169.0281099999999981
20
-84.4788519999999892
11
169.0130470000000003
21
-84.4739579999999961
0
LINE
8
BLACK
6
CONTINUOUS
10
169.0130470000000003
20
-84.4739579999999961
11
168.9972080000000005
21
-84.4739579999999961
0
LINE
8
BLACK
6
CONTINUOUS
10
168.9972080000000005
20
-84.4739579999999961
11
168.9843939999999805
21
-84.4646479999999968
0
LINE
8
BLACK
6
CONTINUOUS
10
168.9843939999999805
20
-84.4646479999999968
11
168.9693309999999826
21
-84.4597539999999896
0
LINE
8
BLACK
6
CONTINUOUS
10
168.9693309999999826
20
-84.4597539999999896
11
168.9600209999999834
21
-84.4469399999999979
0
LINE
8
BLACK
6
CONTINUOUS
10
168.9600209999999834
20
-84.4469399999999979
11
168.9472079999999892
21
-84.4376309999999961
0
LINE
8
BLACK
6
CONTINUOUS
10
168.9472079999999892
20
-84.4376309999999961
11
168.9423129999999844
21
-84.4225670000000008
0
LINE
8
BLACK
6
CONTINUOUS
10
168.9423129999999844
20
-84.4225670000000008
11
168.9330039999999826
21
-84.4097539999999924
0
LINE
8
BLACK
6
CONTINUOUS
10
168.9330039999999826
20
-84.4097539999999924
11
168.9330039999999826
21
-84.3939139999999952
0
LINE
8
BLACK
6
CONTINUOUS
10
168.9330039999999826
20
-84.3939139999999952
11
168.9281100000000038
21
-84.3788519999999949
0
LINE
8
BLACK
6
CONTINUOUS
10
168.9281100000000038
20
-84.3788519999999949
11
168.9281100000000038
21
-76.8788519999999949
0
LINE
8
BLACK
6
CONTINUOUS
10
168.9281100000000038
20
-76.8788519999999949
11
168.9330039999999826
21
-76.863788999999997
0
LINE
8
BLACK
6
CONTINUOUS
10
168.9330039999999826
20
-76.863788999999997
11
168.9330039999999826
21
-76.8479499999999973
0
LINE
8
BLACK
6
CONTINUOUS
10
168.9330039999999826
20
-76.8479499999999973
11
168.9423129999999844
21
-76.8351359999999914
0
LINE
8
BLACK
6
CONTINUOUS
10
168.9423129999999844
20
-76.8351359999999914
11
168.9472079999999892
21
-76.8200729999999936
0
LINE
8
BLACK
6
CONTINUOUS
10
168.9472079999999892
20
-76.8200729999999936
11
168.9600209999999834
21
-76.8107629999999943
0
LINE
8
BLACK
6
CONTINUOUS
10
168.9600209999999834
20
-76.8107629999999943
11
168.9693309999999826
21
-76.7979500000000002
0
LINE
8
BLACK
6
CONTINUOUS
10
168.9693309999999826
20
-76.7979500000000002
11
168.9843939999999805
21
-76.7930549999999954
0
LINE
8
BLACK
6
CONTINUOUS
10
168.9843939999999805
20
-76.7930549999999954
11
168.9972080000000005
21
-76.7837459999999936
0
LINE
8
BLACK
6
CONTINUOUS
10
168.9972080000000005
20
-76.7837459999999936
11
169.0130470000000003
21
-76.7837459999999936
0
LINE
8
BLACK
6
CONTINUOUS
10
169.0130470000000003
20
-76.7837459999999936
11
169.0281099999999981
21
-76.7788520000000005
0
LINE
8
BLACK
6
CONTINUOUS
10
169.0281099999999981
20
-76.7788520000000005
11
172.6580469999999821
21
-76.7788520000000005
0
LINE
8
BLACK
6
CONTINUOUS
10
172.6580469999999821
20
-76.7788520000000005
11
172.6580469999999821
21
-73.9910660000000036
0
LINE
8
BLACK
6
CONTINUOUS
10
172.6580469999999821
20
-73.9910660000000036
11
169.2504030000000057
21
-73.9910660000000036
0
LINE
8
BLACK
6
CONTINUOUS
10
169.2504030000000057
20
-73.9910660000000036
11
169.2353399999999795
21
-73.9861719999999963
0
LINE
8
BLACK
6
CONTINUOUS
10
169.2353399999999795
20
-73.9861719999999963
11
169.2195009999999797
21
-73.9861719999999963
0
LINE
8
BLACK
6
CONTINUOUS
10
169.2195009999999797
20
-73.9861719999999963
11
169.2066869999999881
21
-73.976861999999997
0
LINE
8
BLACK
6
CONTINUOUS
10
169.2066869999999881
20
-73.976861999999997
11
169.1916239999999902
21
-73.9719679999999897
0
LINE
8
BLACK
6
CONTINUOUS
10
169.1916239999999902
20
-73.9719679999999897
11
169.182313999999991
21
-73.9591539999999981
0
LINE
8
BLACK
6
CONTINUOUS
10
169.182313999999991
20
-73.9591539999999981
11
169.1695009999999968
21
-73.9498449999999963
0
LINE
8
BLACK
6
CONTINUOUS
10
169.1695009999999968
20
-73.9498449999999963
11
169.164605999999992
21
-73.934781000000001
0
LINE
8
BLACK
6
CONTINUOUS
10
169.164605999999992
20
-73.934781000000001
11
169.1552969999999902
21
-73.9219679999999926
0
LINE
8
BLACK
6
CONTINUOUS
10
169.1552969999999902
20
-73.9219679999999926
11
169.1552969999999902
21
-73.9061279999999954
0
LINE
8
BLACK
6
CONTINUOUS
10
169.1552969999999902
20
-73.9061279999999954
11
169.150402999999983
21
-73.891065999999995
0
LINE
8
BLACK
6
CONTINUOUS
10
169.150402999999983
20
-73.891065999999995
11
169.150402999999983
21
-69.5589370000000002
0
LINE
8
BLACK
6
CONTINUOUS
10
169.150402999999983
20
-69.5589370000000002
11
169.1527079999999899
21
-69.551840999999996
0
LINE
8
BLACK
6
CONTINUOUS
10
169.1527079999999899
20
-69.551840999999996
11
169.1514520000000061
21
-69.5444849999999946
0
LINE
8
BLACK
6
CONTINUOUS
10
169.1514520000000061
20
-69.5444849999999946
11
169.162085999999988
21
-69.5229759999999999
0
LINE
8
BLACK
6
CONTINUOUS
10
169.162085999999988
20
-69.5229759999999999
11
169.1695009999999968
21
-69.500157999999999
0
LINE
8
BLACK
6
CONTINUOUS
10
169.1695009999999968
20
-69.500157999999999
11
169.1755379999999889
21
-69.4957709999999906
0
LINE
8
BLACK
6
CONTINUOUS
10
169.1755379999999889
20
-69.4957709999999906
11
169.178845999999993
21
-69.4890829999999937
0
LINE
8
BLACK
6
CONTINUOUS
10
169.178845999999993
20
-69.4890829999999937
11
169.4421459999999797
21
-69.2193620000000038
0
LINE
8
BLACK
6
CONTINUOUS
10
169.4421459999999797
20
-69.2193620000000038
11
169.4498250000000041
21
-69.2153309999999919
0
LINE
8
BLACK
6
CONTINUOUS
10
169.4498250000000041
20
-69.2153309999999919
11
169.4549240000000054
21
-69.2083140000000014
0
LINE
8
BLACK
6
CONTINUOUS
10
169.4549240000000054
20
-69.2083140000000014
11
169.4766449999999907
21
-69.2012560000000008
0
LINE
8
BLACK
6
CONTINUOUS
10
169.4766449999999907
20
-69.2012560000000008
11
169.4968709999999987
21
-69.1906419999999969
0
LINE
8
BLACK
6
CONTINUOUS
10
169.4968709999999987
20
-69.1906419999999969
11
169.5054539999999861
21
-69.1918950000000024
0
LINE
8
BLACK
6
CONTINUOUS
10
169.5054539999999861
20
-69.1918950000000024
11
169.5137029999999925
21
-69.1892160000000018
0
LINE
8
BLACK
6
CONTINUOUS
10
169.5137029999999925
20
-69.1892160000000018
11
171.9101069999999822
21
-69.1892160000000018
0
LINE
8
BLACK
6
CONTINUOUS
10
171.9101069999999822
20
-69.1892160000000018
11
171.9101069999999822
21
-67.0485960000000034
0
LINE
8
BLACK
6
CONTINUOUS
10
171.9101069999999822
20
-67.0485960000000034
11
171.9150009999999895
21
-67.0335329999999914
0
LINE
8
BLACK
6
CONTINUOUS
10
171.9150009999999895
20
-67.0335329999999914
11
171.9150009999999895
21
-67.0176939999999917
0
LINE
8
BLACK
6
CONTINUOUS
10
171.9150009999999895
20
-67.0176939999999917
11
171.9243099999999913
21
-67.00488
0
LINE
8
BLACK
6
CONTINUOUS
10
171.9243099999999913
20
-67.00488
11
171.9292049999999961
21
-66.9898170000000022
0
LINE
8
BLACK
6
CONTINUOUS
10
171.9292049999999961
20
-66.9898170000000022
11
171.9420179999999903
21
-66.9805070000000029
0
LINE
8
BLACK
6
CONTINUOUS
10
171.9420179999999903
20
-66.9805070000000029
11
171.9513279999999895
21
-66.9676939999999945
0
LINE
8
BLACK
6
CONTINUOUS
10
171.9513279999999895
20
-66.9676939999999945
11
171.9663909999999873
21
-66.962799000000004
0
LINE
8
BLACK
6
CONTINUOUS
10
171.9663909999999873
20
-66.962799000000004
11
171.979204999999979
21
-66.9534900000000022
0
LINE
8
BLACK
6
CONTINUOUS
10
171.979204999999979
20
-66.9534900000000022
11
171.9950439999999787
21
-66.9534900000000022
0
LINE
8
BLACK
6
CONTINUOUS
10
171.9950439999999787
20
-66.9534900000000022
11
172.010107000000005
21
-66.9485959999999949
0
LINE
8
BLACK
6
CONTINUOUS
10
172.010107000000005
20
-66.9485959999999949
11
172.7114859999999794
21
-66.9485959999999949
0
LINE
8
BLACK
6
CONTINUOUS
10
172.7114859999999794
20
-66.9485959999999949
11
172.7114859999999794
21
-65.7871239999999915
0
LINE
8
BLACK
6
CONTINUOUS
10
172.7114859999999794
20
-65.7871239999999915
11
171.4516569999999831
21
-65.7871239999999915
0
LINE
8
BLACK
6
CONTINUOUS
10
171.4516569999999831
20
-65.7871239999999915
11
167.0470420000000047
21
-70.1917389999999983
0
LINE
8
BLACK
6
CONTINUOUS
10
167.0470420000000047
20
-70.1917389999999983
11
167.0470420000000047
21
-95.0281789999999944
0
LINE
8
BLACK
6
CONTINUOUS
10
167.0470420000000047
20
-95.0281789999999944
11
167.0421479999999974
21
-95.0432409999999948
0
LINE
8
BLACK
6
CONTINUOUS
10
167.0421479999999974
20
-95.0432409999999948
11
167.0421479999999974
21
-95.0590809999999919
0
LINE
8
BLACK
6
CONTINUOUS
10
167.0421479999999974
20
-95.0590809999999919
11
167.0328379999999981
21
-95.0718940000000003
0
LINE
8
BLACK
6
CONTINUOUS
10
167.0328379999999981
20
-95.0718940000000003
11
167.0279439999999909
21
-95.0869579999999956
0
LINE
8
BLACK
6
CONTINUOUS
10
167.0279439999999909
20
-95.0869579999999956
11
167.0151299999999992
21
-95.0962669999999974
0
LINE
8
BLACK
6
CONTINUOUS
10
167.0151299999999992
20
-95.0962669999999974
11
167.0058209999999974
21
-95.1090809999999891
0
LINE
8
BLACK
6
CONTINUOUS
10
167.0058209999999974
20
-95.1090809999999891
11
166.9907570000000021
21
-95.1139749999999964
0
LINE
8
BLACK
6
CONTINUOUS
10
166.9907570000000021
20
-95.1139749999999964
11
166.9779439999999795
21
-95.1232849999999956
0
LINE
8
BLACK
6
CONTINUOUS
10
166.9779439999999795
20
-95.1232849999999956
11
166.9621049999999798
21
-95.1232849999999956
0
LINE
8
BLACK
6
CONTINUOUS
10
166.9621049999999798
20
-95.1232849999999956
11
166.947041999999982
21
-95.1281789999999887
0
LINE
8
BLACK
6
CONTINUOUS
10
166.947041999999982
20
-95.1281789999999887
11
137.7470419999999933
21
-95.1281789999999887
0
LINE
8
BLACK
6
CONTINUOUS
10
137.7470419999999933
20
-95.1281789999999887
11
137.7319789999999955
21
-95.1232849999999956
0
LINE
8
BLACK
6
CONTINUOUS
10
137.7319789999999955
20
-95.1232849999999956
11
137.7161399999999958
21
-95.1232849999999956
0
LINE
8
BLACK
6
CONTINUOUS
10
137.7161399999999958
20
-95.1232849999999956
11
137.7033260000000041
21
-95.1139749999999964
0
LINE
8
BLACK
6
CONTINUOUS
10
137.7033260000000041
20
-95.1139749999999964
11
137.6882630000000063
21
-95.1090809999999891
0
LINE
8
BLACK
6
CONTINUOUS
10
137.6882630000000063
20
-95.1090809999999891
11
137.678953000000007
21
-95.0962669999999974
0
LINE
8
BLACK
6
CONTINUOUS
10
137.678953000000007
20
-95.0962669999999974
11
137.6661399999999844
21
-95.0869579999999956
0
LINE
8
BLACK
6
CONTINUOUS
10
137.6661399999999844
20
-95.0869579999999956
11
137.6612449999999797
21
-95.0718940000000003
0
LINE
8
BLACK
6
CONTINUOUS
10
137.6612449999999797
20
-95.0718940000000003
11
137.6519360000000063
21
-95.0590809999999919
0
LINE
8
BLACK
6
CONTINUOUS
10
137.6519360000000063
20
-95.0590809999999919
11
137.6519360000000063
21
-95.0432409999999948
0
LINE
8
BLACK
6
CONTINUOUS
10
137.6519360000000063
20
-95.0432409999999948
11
137.647041999999999
21
-95.0281789999999944
0
LINE
8
BLACK
6
CONTINUOUS
10
137.647041999999999
20
-95.0281789999999944
11
137.647041999999999
21
-65.5212190000000021
0
LINE
8
BLACK
6
CONTINUOUS
10
137.647041999999999
20
-65.5212190000000021
11
124.2417329999999964
21
-65.5212190000000021
  0
ENDSEC
  0
EOF
