<svg xmlns="http://www.w3.org/2000/svg" width="400" height="78.654" viewBox="0 0 105.833 20.811"><path d="M27.586 76.025q0-.48.341-.82.342-.343.822-.343h2.023q.567 0 1.036.281.468.276.744.74.281.462.281 1.03v1.598q0 .568-.281 1.037-.276.468-.744.75-.469.275-1.036.275H29.41V79.41h1.362q.374 0 .633-.265.265-.27.265-.645v-1.576q0-.375-.265-.634-.259-.265-.633-.265h-2.023v6.676h-1.163zm6.515.899q0-.568.275-1.036.282-.469.75-.745.469-.28 1.036-.28h1.246q.568 0 1.036.28.469.276.745.745.28.468.28 1.036v1.587q0 .568-.28 1.037-.276.468-.745.75-.468.275-1.036.275h-1.246q-.567 0-1.036-.276-.468-.28-.75-.75-.275-.468-.275-1.036zm1.163 1.576q0 .375.265.645.264.265.633.265h1.246q.375 0 .634-.265.265-.27.265-.645v-1.565q0-.375-.265-.64-.259-.27-.634-.27h-1.246q-.369 0-.633.27-.265.265-.265.64zm6.311-3.638.656 3.782 1.411-2.41h1.097l1.411 2.41.656-3.782h1.163l-.986 5.71h-1.02l-1.77-2.992-1.774 2.993h-1.02l-.992-5.71zm7.387 1.18q0-.49.358-.832.358-.348.86-.348h2.381q.458 0 .827.226.375.22.595.601.226.375.226.832v.16q0 .452-.226.827-.22.37-.595.595-.37.221-.827.221h-1.775v-1.158h1.786q.199 0 .336-.143.144-.143.144-.347v-.155q0-.209-.144-.352-.137-.144-.336-.144h-2.447v2.933q0 .187.126.32.127.132.31.132h3.246v1.163H50.56q-.44 0-.805-.215-.363-.22-.578-.584-.215-.37-.215-.81zm6.515.419q0-.441.22-.805.227-.364.596-.579.375-.215.827-.215h1.273v1.158H57.12q-.199 0-.342.138-.138.132-.138.325v4.09h-1.163z" aria-label="power" style="font-style:italic;font-weight:700;font-size:11.2889px;font-family:Anta;-inkscape-font-specification:&quot;Anta Bold Italic&quot;;stroke-width:.264583" transform="translate(-51.3 -139.215)scale(1.85967)"/><path d="M54.256 14.243v-2.59H51.64q-.556 0-.932.373-.376.372-.376.922t.376.923.932.372Zm0 5.18v-2.59H51.64q-.556 0-.932.372t-.376.922.376.923.932.372Zm5.23 1.294q1.078 0 1.846-.76.768-.761.768-1.83h2.615v-5.179H62.1q0-1.068-.768-1.829t-1.847-.76h-3.922v10.358zm9.152-3.884q2.157 0 3.693-1.522 1.537-1.521 1.537-3.658T72.33 7.995t-3.693-1.52h-1.961q-.818 0-1.39-.567t-.572-1.376.572-1.376 1.39-.566h4.576q.555 0 .931-.373.376-.372.376-.922t-.376-.923T71.253 0h-4.576Q64.78 0 63.44 1.327T62.1 4.532t1.34 3.205 3.236 1.327h1.96q1.08 0 1.848.76.768.761.768 1.83t-.768 1.828-1.847.761h-2.615v2.59z"/><path d="M68.135 78.212h.744v-2.128h1.163v2.128h1.759v1.163h-1.759v2.927q0 .187.144.325.148.132.352.132h1.263v1.164h-1.28q-.451 0-.826-.215-.37-.22-.595-.585-.22-.37-.22-.816v-2.932h-.745zm4.713 1.598q0-.44.22-.804.226-.364.596-.58.375-.214.827-.214h1.273v1.157H74.49q-.199 0-.342.138-.138.133-.138.325v4.09h-1.163zm3.83-3.153q0-.297.21-.507t.508-.21.507.21q.21.21.21.507t-.21.508q-.21.21-.507.21t-.508-.21q-.21-.21-.21-.508m.133 1.555h1.169v5.71H76.81zm2.437 1.163q0-.48.341-.821.342-.342.822-.342h2.023q.567 0 1.036.281.468.276.744.739.281.463.281 1.03v1.599q0 .568-.281 1.036-.276.469-.744.75-.469.276-1.036.276h-1.362v-1.164h1.362q.374 0 .634-.264.264-.27.264-.645v-1.577q0-.374-.264-.633-.26-.265-.634-.265H80.41v6.675h-1.163z" aria-label="trip" style="font-style:italic;font-weight:700;font-size:11.2889px;font-family:Anta;-inkscape-font-specification:&quot;Anta Bold Italic&quot;;stroke-width:.264583" transform="translate(-51.3 -139.215)scale(1.85967)"/></svg>